<svg width="30" height="30" xmlns="http://www.w3.org/2000/svg" preserveAspectRatio="xMidYMid meet" version="1.0">

 <g>
  <title>Layer 1</title>
  <ellipse stroke-width="0" ry="14.99368" rx="14.93082" id="svg_4" cy="15.03501" cx="14.89826" stroke="#000" fill="#cccccc"/>
  <g id="svg_1" fill="#000000" transform="translate(0 30) scale(0.1 -0.1)">
   <path fill="#222222" id="svg_2" d="m73,223c-25,-9 -12,-29 32,-51l45,-22l45,22c46,23 57,41 29,52c-18,7 -133,7 -151,-1z"/>
   <path fill="#222222" id="svg_3" d="m60,131c0,-57 6,-61 90,-61c84,0 90,4 90,61l0,49l-45,-22l-45,-22l-45,22l-45,22l0,-49z"/>
  </g>
 </g>
</svg>