<?xml version="1.0" encoding="UTF-8"?>
<svg xmlns="http://www.w3.org/2000/svg" xmlns:xlink="http://www.w3.org/1999/xlink" viewBox="0 0 30 30" width="30px" height="30px">
<g id="surface23266386">
<path style=" stroke:none;fill-rule:nonzero;fill:rgb(80.000001%,80.000001%,80.000001%);fill-opacity:1;" d="M 15.085938 30.085938 C 6.804688 30.085938 0.0859375 23.371094 0.0859375 15.085938 C 0.0859375 6.804688 6.804688 0.0859375 15.085938 0.0859375 C 23.371094 0.0859375 30.085938 6.804688 30.085938 15.085938 C 30.085938 23.371094 23.371094 30.085938 15.085938 30.085938 Z M 15.085938 30.085938 "/>
<path style=" stroke:none;fill-rule:nonzero;fill:rgb(100%,100%,100%);fill-opacity:1;" d="M 6.859375 7.601562 C 6.050781 7.601562 5.378906 8.269531 5.378906 9.078125 L 5.378906 20.921875 C 5.378906 21.730469 6.050781 22.398438 6.859375 22.398438 L 23.140625 22.398438 C 23.949219 22.398438 24.621094 21.730469 24.621094 20.921875 L 24.621094 9.078125 C 24.621094 8.269531 23.949219 7.601562 23.140625 7.601562 Z M 8.855469 9.078125 L 21.140625 9.078125 L 15 13.621094 Z M 7.601562 10.910156 L 15 16.378906 L 22.398438 10.910156 L 22.398438 20.921875 L 7.601562 20.921875 Z M 7.601562 10.910156 "/>
</g>
</svg>
