<svg width="30" height="30" xmlns="http://www.w3.org/2000/svg" version="1.0" preserveAspectRatio="xMidYMid meet">
 <g id="Layer_1">
  <title>Layer 1</title>
  <g stroke="null">
   <g stroke="null">
    <title stroke="null">Layer 1</title>
    <path stroke="#000" fill="#cccccc" stroke-width="0" opacity="undefined" d="m15,29.92402c-8.24531,0 -14.92402,-6.67871 -14.92402,-14.92402c0,-8.24531 6.67871,-14.92402 14.92402,-14.92402c8.24531,0 14.92402,6.67871 14.92402,14.92402c0,8.24531 -6.67871,14.92402 -14.92402,14.92402z" id="svg_5"/>
    <g stroke="null" id="svg_1">
     <path stroke="null" id="svg_4" d="m11.36758,6.34325c-2.56055,1.3696 -3.09648,3.93015 -1.72689,8.0985c0.65503,1.90553 1.19096,3.9897 1.19096,4.58518c0,2.14372 -3.51332,4.1088 -4.46608,2.50101c-0.53593,-0.83367 -1.48869,-0.71457 -1.48869,0.17864c0,1.2505 2.02462,2.79875 3.51332,2.79875c1.60779,0 3.45377,-0.89322 5.29975,-2.56055l1.31005,-1.19096l1.3696,1.19096c1.84598,1.66734 3.63241,2.56055 5.3593,2.56055c1.48869,0 3.39422,-1.60779 3.39422,-2.85829c0,-0.89322 -1.01231,-0.95276 -1.48869,-0.1191c-0.65503,1.07186 -2.6201,0.59548 -3.63241,-0.89322c-1.01231,-1.54824 -0.95276,-2.02462 0.77412,-7.74121c0.83367,-2.6201 -0.1191,-5.4784 -2.20327,-6.55026c-2.14372,-1.13141 -5.18066,-1.13141 -7.20528,0zm2.7392,6.25252c-0.29774,0.47638 -0.65503,0.47638 -1.01231,0.1191c-0.35729,-0.35729 -0.41683,-0.95276 -0.17864,-1.31005c0.29774,-0.47638 0.65503,-0.47638 1.01231,-0.1191c0.35729,0.35729 0.41683,0.95276 0.17864,1.31005zm2.97739,0c-0.29774,0.47638 -0.65503,0.47638 -1.01231,0.1191c-0.35729,-0.35729 -0.41683,-0.95276 -0.17864,-1.31005c0.29774,-0.47638 0.65503,-0.47638 1.01231,-0.1191c0.35729,0.35729 0.41683,0.95276 0.17864,1.31005z" fill="#222222"/>
     <path stroke="null" id="svg_3" d="m5.88919,14.2631c-1.31005,1.48869 -1.2505,2.6201 0.23819,4.52563c1.54824,1.96508 3.69196,1.90553 3.9897,-0.05955c0.1191,-0.95276 -0.17864,-1.31005 -1.19096,-1.48869c-0.71457,-0.1191 -1.42915,-0.65503 -1.54824,-1.19096c-0.1191,-0.77412 0.05955,-0.95276 0.71457,-0.71457c1.13141,0.41683 1.2505,-0.41683 0.23819,-1.42915c-0.95276,-0.95276 -1.31005,-0.89322 -2.44146,0.35729z" fill="#222222"/>
     <path stroke="null" id="svg_2" d="m21.96709,13.60808c-0.65503,0.59548 -0.47638,2.08417 0.17864,1.66734c0.35729,-0.17864 0.59548,0.05955 0.59548,0.59548c0,0.53593 -0.53593,1.13141 -1.19096,1.31005c-1.60779,0.41683 -1.66734,3.15603 -0.05955,3.15603c1.3696,0 3.63241,-2.67965 3.63241,-4.22789c0,-1.72689 -2.20327,-3.51332 -3.15603,-2.50101z" fill="#222222"/>
    </g>
   </g>
  </g>
 </g>

</svg>