<?xml version="1.0" encoding="UTF-8"?>
<svg xmlns="http://www.w3.org/2000/svg" xmlns:xlink="http://www.w3.org/1999/xlink" viewBox="0 0 30 30" width="30px" height="30px">
<g id="surface23326094">
<path style=" stroke:none;fill-rule:nonzero;fill:rgb(80.000001%,80.000001%,80.000001%);fill-opacity:1;" d="M 15.085938 30.085938 C 6.804688 30.085938 0.0859375 23.371094 0.0859375 15.085938 C 0.0859375 6.804688 6.804688 0.0859375 15.085938 0.0859375 C 23.371094 0.0859375 30.085938 6.804688 30.085938 15.085938 C 30.085938 23.371094 23.371094 30.085938 15.085938 30.085938 Z M 15.085938 30.085938 "/>
<path style=" stroke:none;fill-rule:nonzero;fill:rgb(13.333334%,13.333334%,13.333334%);fill-opacity:1;" d="M 10.953125 6 C 10.777344 6 10.6875 6.085938 10.6875 6.265625 L 10.6875 23.734375 C 10.6875 23.910156 10.773438 23.996094 10.953125 23.996094 L 12.671875 23.996094 C 12.847656 23.996094 12.9375 23.910156 12.9375 23.734375 L 12.9375 20.105469 L 14.296875 18.816406 L 18.222656 23.8125 C 18.332031 23.9375 18.453125 24 18.597656 24 L 20.976562 24 C 21.097656 24 21.171875 23.964844 21.1875 23.894531 L 21.136719 23.625 L 15.953125 17.183594 L 20.925781 12.375 C 21.015625 12.277344 20.984375 12 20.734375 12 L 18.273438 12 C 18.152344 12 18.027344 12.066406 17.902344 12.1875 L 12.9375 17.230469 L 12.9375 6.265625 C 12.9375 6.085938 12.851562 6 12.671875 6 Z M 10.953125 6 "/>
</g>
</svg>
